<?xml version="1.0" encoding="UTF-8" standalone="no"?>
<!DOCTYPE svg PUBLIC "-//W3C//DTD SVG 1.1//EN" "http://www.w3.org/Graphics/SVG/1.1/DTD/svg11.dtd">
<svg width="100%" height="100%" viewBox="0 0 1328 178" version="1.1" xmlns="http://www.w3.org/2000/svg" xmlns:xlink="http://www.w3.org/1999/xlink" xml:space="preserve" xmlns:serif="http://www.serif.com/" style="fill-rule:evenodd;clip-rule:evenodd;stroke-linejoin:round;stroke-miterlimit:2;">
    <g transform="matrix(1,0,0,1,-296.192,-612.453)">
        <g transform="matrix(0.403051,0,0,0.403051,53.5341,518.403)">
            <path d="M962.838,412.022C959.376,404.902 955.388,397.584 951.308,390.143C940.779,370.938 929.333,351.015 922.457,331.545C916.741,315.358 914.39,299.419 917.236,284.316C920.566,266.645 931.201,250.009 953.303,235.26C959.243,231.563 967.067,233.385 970.764,239.326C974.46,245.266 972.638,253.09 966.697,256.787C941.199,271.546 934.858,290.55 937.758,311.431C942.371,344.648 966.088,381.241 977.672,413.218C982.257,425.874 985.106,437.848 984.733,448.747C985.106,459.647 982.257,471.621 977.672,484.277C966.088,516.254 942.371,552.847 937.758,586.064C934.858,606.945 941.199,625.948 966.697,640.708C972.638,644.405 974.46,652.229 970.764,658.169C967.067,664.11 959.243,665.932 953.303,662.235C931.201,647.486 920.566,630.85 917.236,613.179C914.39,598.076 916.741,582.137 922.457,565.95C929.333,546.48 940.779,526.556 951.308,507.352C955.388,499.911 959.376,492.593 962.838,485.473C962.673,485.579 962.505,485.685 962.335,485.792C946.8,495.528 931.928,495.754 918.724,491.178C890.478,481.39 870.373,449.405 870.373,449.405C870.238,449.204 870.207,448.964 870.265,448.747C870.207,448.531 870.238,448.291 870.373,448.09C870.373,448.09 890.478,416.105 918.724,406.317C931.928,401.741 946.8,401.967 962.335,411.703C962.505,411.81 962.673,411.916 962.838,412.022ZM655.891,625.322C660.19,622.84 665.694,624.315 668.175,628.613C670.657,632.912 669.182,638.416 664.884,640.898C660.586,643.379 655.082,641.904 652.6,637.606C650.118,633.308 651.593,627.804 655.891,625.322ZM856.314,506.554L679.166,622.268L867.952,526.711C873.514,523.499 875.423,516.376 872.211,510.813C869,505.251 861.876,503.342 856.314,506.554ZM973.117,440.72C971.396,432.547 966.652,425.118 957.665,418.653C944.83,409.42 932.023,408.517 920.408,411.73C894.213,418.974 873.941,445.936 871.884,448.747C873.941,451.559 894.213,478.521 920.408,485.765C932.023,488.978 944.83,488.075 957.665,478.842C966.652,472.377 971.396,464.948 973.117,456.775C973.591,454.041 973.857,451.364 973.881,448.747C973.857,446.131 973.591,443.453 973.117,440.72ZM843.999,437.32L632.727,448.958L843.999,460.595C850.422,460.595 855.637,455.381 855.637,448.958C855.637,442.534 850.422,437.32 843.999,437.32ZM611.044,439.965C616.007,439.965 620.037,443.994 620.037,448.958C620.037,453.921 616.007,457.95 611.044,457.95C606.081,457.95 602.052,453.921 602.052,448.958C602.052,443.994 606.081,439.965 611.044,439.965ZM867.952,371.204L679.166,275.647L856.314,391.361C861.876,394.573 869,392.664 872.211,387.102C875.423,381.539 873.514,374.416 867.952,371.204ZM664.884,257.018C669.182,259.499 670.657,265.003 668.175,269.302C665.694,273.6 660.19,275.075 655.891,272.593C651.593,270.112 650.118,264.607 652.6,260.309C655.082,256.011 660.586,254.536 664.884,257.018Z"/>
        </g>
        <g transform="matrix(-0.403051,0,0,0.403051,1866.47,522.112)">
            <path d="M962.838,412.022C959.376,404.902 955.388,397.584 951.308,390.143C940.779,370.938 929.333,351.015 922.457,331.545C916.741,315.358 914.39,299.419 917.236,284.316C920.566,266.645 931.201,250.009 953.303,235.26C959.243,231.563 967.067,233.385 970.764,239.326C974.46,245.266 972.638,253.09 966.697,256.787C941.199,271.546 934.858,290.55 937.758,311.431C942.371,344.648 966.088,381.241 977.672,413.218C982.257,425.874 985.106,437.848 984.733,448.747C985.106,459.647 982.257,471.621 977.672,484.277C966.088,516.254 942.371,552.847 937.758,586.064C934.858,606.945 941.199,625.948 966.697,640.708C972.638,644.405 974.46,652.229 970.764,658.169C967.067,664.11 959.243,665.932 953.303,662.235C931.201,647.486 920.566,630.85 917.236,613.179C914.39,598.076 916.741,582.137 922.457,565.95C929.333,546.48 940.779,526.556 951.308,507.352C955.388,499.911 959.376,492.593 962.838,485.473C962.673,485.579 962.505,485.685 962.335,485.792C946.8,495.528 931.928,495.754 918.724,491.178C890.478,481.39 870.373,449.405 870.373,449.405C870.238,449.204 870.207,448.964 870.265,448.747C870.207,448.531 870.238,448.291 870.373,448.09C870.373,448.09 890.478,416.105 918.724,406.317C931.928,401.741 946.8,401.967 962.335,411.703C962.505,411.81 962.673,411.916 962.838,412.022ZM655.891,625.322C660.19,622.84 665.694,624.315 668.175,628.613C670.657,632.912 669.182,638.416 664.884,640.898C660.586,643.379 655.082,641.904 652.6,637.606C650.118,633.308 651.593,627.804 655.891,625.322ZM856.314,506.554L679.166,622.268L867.952,526.711C873.514,523.499 875.423,516.376 872.211,510.813C869,505.251 861.876,503.342 856.314,506.554ZM973.117,440.72C971.396,432.547 966.652,425.118 957.665,418.653C944.83,409.42 932.023,408.517 920.408,411.73C894.213,418.974 873.941,445.936 871.884,448.747C873.941,451.559 894.213,478.521 920.408,485.765C932.023,488.978 944.83,488.075 957.665,478.842C966.652,472.377 971.396,464.948 973.117,456.775C973.591,454.041 973.857,451.364 973.881,448.747C973.857,446.131 973.591,443.453 973.117,440.72ZM843.999,437.32L632.727,448.958L843.999,460.595C850.422,460.595 855.637,455.381 855.637,448.958C855.637,442.534 850.422,437.32 843.999,437.32ZM611.044,439.965C616.007,439.965 620.037,443.994 620.037,448.958C620.037,453.921 616.007,457.95 611.044,457.95C606.081,457.95 602.052,453.921 602.052,448.958C602.052,443.994 606.081,439.965 611.044,439.965ZM867.952,371.204L679.166,275.647L856.314,391.361C861.876,394.573 869,392.664 872.211,387.102C875.423,381.539 873.514,374.416 867.952,371.204ZM664.884,257.018C669.182,259.499 670.657,265.003 668.175,269.302C665.694,273.6 660.19,275.075 655.891,272.593C651.593,270.112 650.118,264.607 652.6,260.309C655.082,256.011 660.586,254.536 664.884,257.018Z"/>
        </g>
        <path d="M563.389,780.896C547.429,780.896 533.027,777.362 520.183,770.294C507.339,763.225 497.268,753.497 489.972,741.109C482.676,728.721 479.028,714.775 479.028,699.271C479.028,683.766 482.676,669.82 489.972,657.432C497.268,645.044 507.377,635.316 520.297,628.248C533.217,621.18 547.657,617.646 563.617,617.646C576.081,617.646 587.482,619.736 597.818,623.916C608.154,628.096 616.97,634.29 624.266,642.498L609.446,656.862C597.438,644.246 582.465,637.938 564.529,637.938C552.673,637.938 541.957,640.598 532.381,645.918C522.805,651.238 515.319,658.572 509.923,667.92C504.527,677.268 501.828,687.719 501.828,699.271C501.828,710.823 504.527,721.273 509.923,730.621C515.319,739.969 522.805,747.303 532.381,752.623C541.957,757.943 552.673,760.603 564.529,760.603C582.313,760.603 597.286,754.219 609.446,741.451L624.266,755.815C616.97,764.023 608.116,770.256 597.704,774.512C587.292,778.768 575.853,780.896 563.389,780.896ZM1379.18,780.896C1367.17,780.896 1355.59,779.034 1344.41,775.31C1333.24,771.586 1324.46,766.759 1318.08,760.831L1326.51,743.047C1332.59,748.519 1340.38,752.965 1349.88,756.385C1359.38,759.805 1369.15,761.515 1379.18,761.515C1392.41,761.515 1402.29,759.273 1408.82,754.789C1415.36,750.305 1418.63,744.339 1418.63,736.891C1418.63,731.419 1416.84,726.973 1413.27,723.553C1409.7,720.133 1405.29,717.511 1400.05,715.687C1394.8,713.863 1387.39,711.811 1377.82,709.531C1365.81,706.643 1356.12,703.755 1348.75,700.867C1341.37,697.979 1335.07,693.533 1329.82,687.529C1324.58,681.524 1321.95,673.43 1321.95,663.246C1321.95,654.734 1324.2,647.058 1328.68,640.218C1333.16,633.378 1339.97,627.906 1349.09,623.802C1358.21,619.698 1369.53,617.646 1383.06,617.646C1392.48,617.646 1401.76,618.862 1410.88,621.294C1420,623.726 1427.82,627.222 1434.36,631.782L1426.84,650.022C1420.15,645.766 1413,642.536 1405.4,640.332C1397.8,638.128 1390.36,637.026 1383.06,637.026C1370.14,637.026 1360.45,639.382 1353.99,644.094C1347.53,648.806 1344.3,654.886 1344.3,662.334C1344.3,667.806 1346.12,672.252 1349.77,675.672C1353.42,679.092 1357.94,681.752 1363.34,683.652C1368.73,685.552 1376.07,687.567 1385.34,689.695C1397.35,692.583 1407,695.471 1414.3,698.359C1421.59,701.247 1427.86,705.655 1433.11,711.583C1438.35,717.511 1440.97,725.491 1440.97,735.523C1440.97,743.883 1438.69,751.521 1434.13,758.437C1429.57,765.353 1422.66,770.826 1413.38,774.854C1404.11,778.882 1392.71,780.896 1379.18,780.896ZM792.304,619.47L815.104,619.47L815.104,779.072L792.304,779.072L792.304,619.47ZM656.87,619.47L679.671,619.47L679.671,759.235L766.084,759.235L766.084,779.072L656.87,779.072L656.87,619.47ZM978.81,759.235L978.81,779.072L862.985,779.072L862.985,619.47L975.618,619.47L975.618,639.306L885.785,639.306L885.785,688.327L965.814,688.327L965.814,707.707L885.785,707.707L885.785,759.235L978.81,759.235ZM1232.58,639.306L1177.86,639.306L1177.86,619.47L1309.87,619.47L1309.87,639.306L1255.15,639.306L1255.15,779.072L1232.58,779.072L1232.58,639.306ZM1153,619.47L1153,779.072L1134.31,779.072L1038.55,660.054L1038.55,779.072L1015.75,779.072L1015.75,619.47L1034.44,619.47L1130.2,738.487L1130.2,619.47L1153,619.47Z" style="fill-rule:nonzero;"/>
    </g>
</svg>
